<?xml version="1.0" standalone="no"?>
<svg version="1.0" viewBox="0 0 72 72" height="128pt" width="128pt" xmlns="http://www.w3.org/2000/svg" xmlns:xlink="http://www.w3.org/1999/xlink">
<g fill="#000">
<path d="M27.4 15.5L27.4 15.5Q27.3 14.1 28 12.8L28 12.8Q28.5 11.7 28.8 11.4 29.1 11.1 29.4 11 29.6 10.9 29.8 10.9L29.8 10.9Q30.7 10.5 31.7 10.5L31.7 10.5Q32.5 10.5 33.2 10.8L33.2 10.8 36.4 12.1Q35.7 14 35.5 14.7L35.5 14.7Q35.1 15.8 34.8 16.5 34.5 17.2 33.9 18.4L33.9 18.4Q31.7 17.4 31.2 17.2L31.2 17.2 27.4 15.5 27.4 15.5 27.4 15.5 27.4 15.5 27.4 15.5 27.4 15.5 27.4 15.5 27.4 15.5 27.4 15.5 27.4 15.5 27.4 15.5 27.4 15.5 27.4 15.5 27.4 15.5 27.4 15.5 27.4 15.5ZM38.1 12.6L38.1 12.6Q38.5 12.8 39 12.9L39 12.9Q40.2 13.3 41.2 14 42.2 14.7 42.3 15.2L42.3 15.2Q42.3 15.4 42.3 15.6L42.3 15.6Q41.8 17.4 41.2 18.5 40.7 19.6 39.7 20.7L39.7 20.7 37.7 20 35.8 19.2 35.5 19.1Q36.1 17.9 36.5 17.1 36.8 16.2 37.1 15.2L37.1 15.2Q37.6 13.7 38.1 12.6L38.1 12.6 38.1 12.6 38.1 12.6 38.1 12.6 38.1 12.6 38.1 12.6 38.1 12.6 38.1 12.6 38.1 12.6 38.1 12.6 38.1 12.6 38.1 12.6 38.1 12.6 38.1 12.6 38.1 12.6 38.1 12.6ZM41.2 35.5L41.2 35.5Q41.6 35.9 42.2 36.3 42.8 36.7 43 36.8L43 36.8Q38.3 42.9 37 43.2L37 43.2 24.1 56.6 28.3 45.2 11.8 57.8 18.7 41.8 14.1 41.6Q14.1 41.4 20 32L20 32Q19.3 30.2 19.3 27.9L19.3 27.9Q19.3 24.4 21.3 21.7L21.3 21.7Q22.7 19.7 23.4 18.8 24 18 24.2 17.6L24.2 17.6Q24.6 17.1 24.7 16.9 24.9 16.7 25 16.6L25 16.6 25.1 16.5Q25.4 16.5 25.7 16.5 25.9 16.6 26.1 16.6L26.1 16.6Q26.3 16.6 26.3 16.6L26.3 16.6Q26.4 16.6 26.4 16.7L26.4 16.7Q26.5 16.7 26.5 16.7L26.5 16.7 28.3 17.5 30.6 18.6Q31.6 19.1 33.8 20L33.8 20 35.2 20.6Q35.6 20.7 37.3 21.4L37.3 21.4 39.2 22.2Q38.6 23.2 38.5 23.4L38.5 23.4Q37.9 24.4 37.2 24.8L37.2 24.8Q36.5 25.3 35.5 25.3L35.5 25.3Q34.9 25.2 34.6 25.1L34.6 25.1Q34.2 25.1 33.5 24.9L33.5 24.9 31.3 24.3 30.2 23.9 29.6 23.7Q29.5 23.6 29.4 23.6 29.3 23.6 29.1 23.5L29.1 23.5Q26.8 23.1 24.5 22.9L24.5 22.9Q26.5 24 28.1 24.7L28.1 24.7 28.7 25.8Q28.1 26.1 27.5 26.8L27.5 26.8Q27 27.4 26.8 27.9L26.8 27.9Q26.9 27.9 27.2 27.9L27.2 27.9Q28.6 27.9 31 28.7 33.4 29.5 34.7 30.6L34.7 30.6Q34.4 29.5 33.7 28.2 32.9 27 31.8 26L31.8 26Q31.6 25.9 33 26.3L33 26.3 34.2 26.6 34.6 26.7Q36.6 28.8 36.7 28.9L36.7 28.9Q37.7 30.1 38.9 32L38.9 32Q39.1 32.2 39.5 33L39.5 33Q40.4 34.8 41.2 35.5L41.2 35.5 41.2 35.5 41.2 35.5 41.2 35.5 41.2 35.5 41.2 35.5 41.2 35.5 41.2 35.5 41.2 35.5 41.2 35.5 41.2 35.5 41.2 35.5 41.2 35.5 41.2 35.5 41.2 35.5 41.2 35.5ZM41.4 21.4L41.4 21.4Q42.1 20.6 42.5 19.8 43 18.9 43.5 17.7L43.5 17.7Q44.3 18.7 44.5 19.1L44.5 19.1Q45.3 20.3 46.1 22L46.1 22 46.1 22.1Q45 24 42.7 26.8 40.4 29.6 39.1 30.2L39.1 30.2Q38 28.5 37.7 28.1L37.7 28.1Q37.4 27.8 37.1 27.4 36.7 27 36.4 26.8L36.4 26.8Q36.5 26.8 36.8 26.7L36.8 26.7Q37.6 26.4 38.1 26.1L38.1 26.1Q38.9 25.5 39.8 24.2L39.8 24.2Q40.2 23.6 40.5 22.9 40.8 22.2 40.9 22L40.9 22 40.9 21.9Q41.2 21.6 41.4 21.4L41.4 21.4 41.4 21.4 41.4 21.4 41.4 21.4 41.4 21.4 41.4 21.4 41.4 21.4 41.4 21.4 41.4 21.4 41.4 21.4 41.4 21.4 41.4 21.4 41.4 21.4 41.4 21.4 41.4 21.4 41.4 21.4ZM43.9 28.1L43.9 28.1Q45.4 26.4 47.3 23.6L47.3 23.6Q47.6 23.9 48.8 25.2L48.8 25.2Q49.7 26.4 49.8 27.3L49.8 27.3Q49.6 28.3 49.1 29.5 48.6 30.7 47.8 31.8L47.8 31.8Q46.4 33.6 44 35.6L44 35.6Q42.7 34.8 42 34.3L42 34.3Q41.6 33.9 40.1 31.7L40.1 31.7Q41.7 30.7 43.9 28.1L43.9 28.1 43.9 28.1 43.9 28.1 43.9 28.1 43.9 28.1 43.9 28.1 43.9 28.1 43.9 28.1 43.9 28.1 43.9 28.1 43.9 28.1 43.9 28.1 43.9 28.1 43.9 28.1 43.9 28.1 43.9 28.1ZM52.4 42.9L52.4 42.9Q52.9 42.2 53.9 41.8L53.9 41.8Q54.8 41.4 55.1 41.4L55.1 41.4Q55.3 41.4 55.4 41.5 55.5 41.6 55.7 41.6L55.7 41.6Q56.1 41.8 56.7 42.2 57.2 42.6 57.4 43.1L57.4 43.1 58.5 45.2 56.8 46.2Q55.8 46.8 54.4 47.3L54.4 47.3 54 46.4 53.5 45.5 52.8 43.9 52.5 43.1 52.4 42.9 52.4 42.9 52.4 42.9 52.4 42.9 52.4 42.9 52.4 42.9 52.4 42.9 52.4 42.9 52.4 42.9 52.4 42.9 52.4 42.9 52.4 42.9 52.4 42.9 52.4 42.9 52.4 42.9 52.4 42.9ZM50.3 58.9L50.3 58.9Q50.3 59.7 50.7 60.8L50.7 60.8Q47.3 61.5 45.6 61.5L45.6 61.5Q45 61.5 44.7 61.3L44.7 61.3 29.7 61.2 37.5 54.6 33.4 53.9Q37.1 50.8 41.2 48L41.2 48Q41.8 46.4 43.2 45.1 44.5 43.8 46.5 43.3L46.5 43.3 49.5 42.6Q50.4 42.4 50.7 42.4L50.7 42.4Q50.7 42.4 50.8 42.4L50.8 42.4Q50.9 42.5 51 42.7 51.1 42.8 51.2 42.9L51.2 42.9Q51.3 42.9 51.3 43L51.3 43 51.4 43.1 51.4 43.1 51.6 43.5 51.9 44.3 52.6 45.9Q53.6 48.1 54.1 49L54.1 49Q54.2 49.4 55 51L55 51 55.3 51.6Q55 51.8 54.5 51.9L54.5 51.9Q53.9 52.1 53.4 52.1L53.4 52.1Q52.7 52.1 52.1 51.6L52.1 51.6Q51.9 51.4 51.6 51L51.6 51 51.2 50.4 50.4 49.1 50 48.4 49.8 48.1 49.6 47.8Q49 47 47.6 45.4L47.6 45.4Q47.9 46.5 48.6 48L48.6 48 48.3 48.7Q48.1 48.7 47.8 48.7L47.8 48.7Q46.9 48.7 46.4 49L46.4 49Q47.1 49.3 48.1 51 49.1 52.6 49.3 53.9L49.3 53.9Q49.9 52.6 49.9 51L49.9 51Q49.9 50.5 49.9 50.2L49.9 50.2Q50.4 51 50.4 51L50.4 51Q50.5 51.2 50.6 51.4 50.8 51.5 50.8 51.6L50.8 51.6Q50.9 51.7 51 51.9L51 51.9 51 53.9Q51 54.9 50.8 56.5L50.8 56.5 50.7 57.2Q50.6 57.3 50.5 57.8 50.3 58.4 50.3 58.9L50.3 58.9 50.3 58.9 50.3 58.9 50.3 58.9 50.3 58.9 50.3 58.9 50.3 58.9 50.3 58.9 50.3 58.9 50.3 58.9 50.3 58.9 50.3 58.9 50.3 58.9 50.3 58.9 50.3 58.9 50.3 58.9ZM59.1 46.3L59.1 46.3Q59.3 46.6 59.5 46.8L59.5 46.8Q59.8 47.4 60 48 60.2 48.6 60.2 49L60.2 49Q60.2 49.3 60.1 49.5L60.1 49.5 59.9 49.7Q58.8 50.4 58.1 50.7 57.3 51 56.3 51.1L56.3 51.1Q55.4 49.6 55 48.6L55 48.6Q54.9 48.5 54.9 48.5 54.9 48.4 54.9 48.4L54.9 48.4Q56 48 56.6 47.6 57.3 47.3 57.4 47.1L57.4 47.1Q58.6 46.5 59.1 46.3L59.1 46.3 59.1 46.3 59.1 46.3 59.1 46.3 59.1 46.3 59.1 46.3 59.1 46.3 59.1 46.3 59.1 46.3 59.1 46.3 59.1 46.3 59.1 46.3 59.1 46.3 59.1 46.3 59.1 46.3 59.1 46.3ZM56.8 52.2L56.8 52.2Q58.1 52 59.6 51.3L59.6 51.3Q59.6 52.1 59.5 52.5L59.5 52.5Q59.3 53.4 59 54.7L59 54.7 58.9 54.7Q57.9 55.1 55.8 55.5 53.8 55.8 52.5 55.8L52.5 55.8Q52.1 55.8 51.7 55.8L51.7 55.8Q51.9 54.3 51.9 53.9L51.9 53.9 51.9 53.6Q51.9 53 51.9 52.7L51.9 52.7Q52 52.7 52.1 52.8L52.1 52.8Q52.7 53.1 53.1 53.1L53.1 53.1 53.4 53.2Q54 53.2 54.8 52.9L54.8 52.9Q55.8 52.6 56.3 52.3L56.3 52.3 56.4 52.3Q56.5 52.3 56.8 52.2L56.8 52.2 56.8 52.2 56.8 52.2 56.8 52.2 56.8 52.2 56.8 52.2 56.8 52.2 56.8 52.2 56.8 52.2 56.8 52.2 56.8 52.2 56.8 52.2 56.8 52.2 56.8 52.2 56.8 52.2 56.8 52.2ZM55.1 56.8L55.1 56.8Q57.5 56.4 58.8 56L58.8 56Q58.9 56.1 58.9 56.9L58.9 56.9Q58.9 58.3 58.5 59L58.5 59Q57.2 60 55.4 60.4L55.4 60.4Q54.1 60.7 51.8 60.7L51.8 60.7Q51.3 59.2 51.3 58.9L51.3 58.9Q51.3 58.6 51.5 56.9L51.5 56.9Q52.1 57 52.8 57L52.8 57Q53.8 57 55.1 56.8L55.1 56.8 55.1 56.8 55.1 56.8 55.1 56.8 55.1 56.8 55.1 56.8 55.1 56.8 55.1 56.8 55.1 56.8 55.1 56.8 55.1 56.8 55.1 56.8 55.1 56.8 55.1 56.8 55.1 56.8 55.1 56.8Z"/>
</g>
</svg>
