<?xml version="1.0" standalone="no"?>
<svg version="1.0" viewBox="0 0 72 72" height="128pt" width="128pt" xmlns="http://www.w3.org/2000/svg" xmlns:xlink="http://www.w3.org/1999/xlink">
<g fill="#000">
<path d="M48.4 41.9L48.4 41.9 48.4 60.6 23.6 60.6 23.6 41.9 11.5 41.9 22.5 28.2Q23 24.5 24.3 22.4L24.3 22.4Q26 19.8 29.4 18.8L29.4 18.8 30.2 18.7 36 11.4 41.4 18.2 42.3 18.3Q44.5 18.7 45.7 19.1L45.7 19.1Q47.1 19.7 48.3 20.9L48.3 20.9Q50 22.1 51 24.7L51 24.7Q51.9 26.9 51.9 30.2L51.9 30.2 51.9 31.2 60.5 41.9 48.4 41.9 48.4 41.9 48.4 41.9 48.4 41.9 48.4 41.9 48.4 41.9 48.4 41.9 48.4 41.9 48.4 41.9 48.4 41.9 48.4 41.9 48.4 41.9 48.4 41.9 48.4 41.9 48.4 41.9 48.4 41.9 48.4 41.9 48.4 41.9 48.4 41.9 48.4 41.9 48.4 41.9 48.4 41.9ZM49.3 35.2L49.3 35.2Q49.7 33.5 49.7 30.1L49.7 30.1Q49.7 27.4 49 25.4L49 25.4Q48.2 23.5 46.8 22.4L46.8 22.4Q46.2 21.7 44.9 21.1L44.9 21.1Q43.3 20.5 42 20.3L42 20.3Q40.4 20.1 37.3 20L37.3 20Q32.5 20.1 30 20.9L30 20.9Q27.5 21.5 26.2 23.5L26.2 23.5Q24.8 25.8 24.5 29.7L24.5 29.7 24.5 32.2 30 32.6 30 30.1Q30 27.7 30.5 26.3L30.5 26.3Q31.1 25.3 32.5 24.9L32.5 24.9Q33.8 24.6 37.3 24.6L37.3 24.6Q39.8 24.6 41.2 24.8L41.2 24.8Q42.6 25 43.4 25.5L43.4 25.5Q43.9 25.9 43.9 26.7L43.9 26.7Q44 27.3 44 29.7L44 29.7Q44 32.7 43.8 33.5L43.8 33.5Q43.7 34.5 43 35L43 35Q41.8 35.7 40 36.3L40 36.3Q36.4 37.5 35.1 38.3L35.1 38.3Q33.4 39.4 32.9 40.6L32.9 40.6Q32.2 42 32.2 44.2L32.2 44.2 32.2 46.2 37.8 46.1 37.8 44.7Q37.8 43.4 38.1 42.7L38.1 42.7Q38.4 42 39.3 41.7L39.3 41.7Q40.1 41.2 42.3 40.8L42.3 40.8Q45.7 39.8 47.2 38.5L47.2 38.5Q48.9 36.9 49.3 35.2L49.3 35.2 49.3 35.2 49.3 35.2 49.3 35.2 49.3 35.2 49.3 35.2 49.3 35.2 49.3 35.2 49.3 35.2 49.3 35.2 49.3 35.2 49.3 35.2 49.3 35.2 49.3 35.2 49.3 35.2 49.3 35.2 49.3 35.2 49.3 35.2 49.3 35.2 49.3 35.2 49.3 35.2 49.3 35.2ZM37.8 56L37.8 50.3 32.2 50.3 32.2 55.9 37.8 56Z"/>
</g>
</svg>
