<?xml version="1.0" standalone="no"?>
<svg version="1.0" viewBox="0 0 72 72" height="128pt" width="128pt" xmlns="http://www.w3.org/2000/svg" xmlns:xlink="http://www.w3.org/1999/xlink">
<g fill="#000">
<path d="M30.1 35.8L30.1 35.8Q28.2 35.8 26.5 36.4 24.8 37 23.3 38.1 21.9 39.2 20.9 40.7 19.9 42.2 19.4 44L19.4 44 11.6 32.4 16.5 33.9 17.1 23.3 24.8 28.9 28.6 15.8 32.8 29.3 47.8 18.1 40.9 38.1 49.9 37.9 44.6 45.2 60.4 45 50.7 53.9 54.9 56.2 36.8 56.2Q38.9 54.6 40.2 52.2 41.5 49.8 41.5 46.9L41.5 46.9Q41.5 44.6 40.6 42.6 39.7 40.6 38.2 39.1 36.6 37.5 34.6 36.7 32.5 35.8 30.1 35.8L30.1 35.8 30.1 35.8 30.1 35.8 30.1 35.8 30.1 35.8 30.1 35.8 30.1 35.8 30.1 35.8 30.1 35.8 30.1 35.8 30.1 35.8 30.1 35.8 30.1 35.8 30.1 35.8 30.1 35.8 30.1 35.8 30.1 35.8 30.1 35.8 30.1 35.8 30.1 35.8 30.1 35.8 30.1 35.8 30.1 35.8 30.1 35.8 30.1 35.8 30.1 35.8 30.1 35.8 30.1 35.8 30.1 35.8 30.1 35.8 30.1 35.8 30.1 35.8 30.1 35.8 30.1 35.8 30.1 35.8 30.1 35.8ZM30.1 56.2L30.1 56.2Q28.2 56.2 26.6 55.5 24.9 54.7 23.7 53.5 22.5 52.2 21.8 50.5 21.1 48.8 21.1 46.9L21.1 46.9Q21.1 45 21.8 43.4 22.5 41.8 23.7 40.5 24.9 39.3 26.6 38.6 28.2 37.9 30.1 37.9L30.1 37.9Q32 37.9 33.7 38.6 35.4 39.3 36.7 40.5 37.9 41.8 38.7 43.4 39.4 45 39.4 46.9L39.4 46.9Q39.4 48.8 38.7 50.5 37.9 52.2 36.7 53.5 35.4 54.7 33.7 55.5 32 56.2 30.1 56.2L30.1 56.2 30.1 56.2 30.1 56.2 30.1 56.2 30.1 56.2 30.1 56.2 30.1 56.2 30.1 56.2 30.1 56.2 30.1 56.2 30.1 56.2 30.1 56.2 30.1 56.2 30.1 56.2 30.1 56.2 30.1 56.2 30.1 56.2 30.1 56.2 30.1 56.2 30.1 56.2 30.1 56.2 30.1 56.2 30.1 56.2 30.1 56.2 30.1 56.2 30.1 56.2 30.1 56.2 30.1 56.2 30.1 56.2 30.1 56.2 30.1 56.2 30.1 56.2 30.1 56.2 30.1 56.2 30.1 56.2 30.1 56.2ZM46.1 34.1L48.4 29 57.1 27.8 51.6 34.1 46.1 34.1ZM36.2 45L24 45 24 49 36.2 49 36.2 45Z"/>
</g>
</svg>
