<?xml version="1.0" standalone="no"?>
<svg version="1.0" viewBox="0 0 72 72" height="128pt" width="128pt" xmlns="http://www.w3.org/2000/svg" xmlns:xlink="http://www.w3.org/1999/xlink">
<g fill="#000">
<path d="M36 11.3L36 11.3Q41.2 11.3 45.5 13.9 49.9 16.5 52.5 20.8 55.1 25.2 55.1 30.4L55.1 30.4 47.3 30.4Q47.3 27.3 45.7 24.8 44.2 22.2 41.6 20.7 39.1 19.2 36 19.2L36 19.2Q32.9 19.2 30.4 20.7 27.8 22.2 26.3 24.8 24.8 27.3 24.8 30.4L24.8 30.4 16.9 30.4Q16.9 25.2 19.5 20.8 22.1 16.5 26.5 13.9 30.8 11.3 36 11.3L36 11.3 36 11.3ZM36 39L36 39Q33.7 39 31.7 37.8 29.7 36.7 28.6 34.7 27.4 32.7 27.4 30.4L27.4 30.4Q27.4 28.1 28.6 26.1 29.7 24.1 31.7 23 33.7 21.8 36 21.8L36 21.8Q38.3 21.8 40.3 23 42.3 24.1 43.4 26.1 44.6 28.1 44.6 30.4L44.6 30.4Q44.6 32.7 43.4 34.7 42.3 36.7 40.3 37.8 38.3 39 36 39L36 39 36 39ZM36 60.7L36 60.7Q34.5 60.7 33.2 59.9 32 59.2 31.2 57.9 30.5 56.7 30.5 55.1L30.5 55.1Q30.5 53.7 31.2 52.4 32 51.1 33.2 50.4 34.5 49.6 36 49.6L36 49.6Q37.5 49.6 38.7 50.4 40 51.1 40.8 52.4 41.5 53.7 41.5 55.1L41.5 55.1Q41.5 56.7 40.8 57.9 40 59.2 38.8 59.9 37.5 60.7 36 60.7L36 60.7 36 60.7Z"/>
</g>
</svg>
