<?xml version="1.0" standalone="no"?>
<!DOCTYPE svg PUBLIC "-//W3C//DTD SVG 20010904//EN"
 "http://www.w3.org/TR/2001/REC-SVG-20010904/DTD/svg10.dtd">
<svg version="1.0" xmlns="http://www.w3.org/2000/svg"
 width="128.000000pt" height="128.000000pt" viewBox="10 -139 128.000000 128.000000"
 preserveAspectRatio="xMidYMid meet">
<metadata>
Created by potrace 1.15, written by Peter Selinger 2001-2017
</metadata>
<g transform="scale(0.1175,-0.1175)"
fill="#000000" stroke="none">
<path d="M506 1068 c-28 -40 -20 -62 29 -86 62 -30 70 -28 89 18 22 54 20 65
-9 78 -43 20 -92 15 -109 -10z"/>
<path d="M654 998 c-9 -29 -16 -55 -15 -58 1 -3 17 -10 36 -17 35 -12 35 -12
55 27 26 50 25 65 -2 84 -40 28 -55 20 -74 -36z"/>
<path d="M402 927 c-51 -76 -65 -118 -57 -178 6 -43 3 -52 -44 -125 l-50 -79
39 -3 c22 -2 40 -5 40 -7 0 -3 -26 -65 -59 -140 -32 -74 -57 -135 -54 -135 2
0 61 44 131 97 70 53 133 101 140 106 7 6 -3 -34 -23 -89 l-36 -99 166 169
c91 94 165 173 165 177 0 3 -7 13 -16 20 -9 7 -31 36 -49 64 -47 70 -69 93
-100 105 l-26 10 21 -31 c12 -16 20 -32 18 -34 -2 -2 -22 2 -43 10 -22 8 -50
14 -62 15 -27 0 -29 7 -7 31 15 17 14 19 -17 38 -45 28 -20 27 82 0 74 -21 80
-21 104 -5 29 19 33 44 8 52 -10 4 -63 26 -118 50 -55 24 -102 44 -105 44 -3
0 -24 -29 -48 -63z"/>
<path d="M749 923 c-12 -21 -30 -51 -39 -67 -9 -15 -26 -33 -38 -40 l-21 -11
24 -30 23 -30 36 34 c20 19 48 52 62 73 l26 37 -22 36 c-12 19 -23 35 -25 35
-2 0 -13 -17 -26 -37z"/>
<path d="M797 801 c-27 -34 -57 -66 -68 -71 -18 -10 -18 -12 -3 -36 31 -47 52
-50 91 -12 63 60 79 116 45 158 l-18 22 -47 -61z"/>
<path d="M942 528 c-8 -8 -7 -20 4 -46 8 -20 16 -38 18 -39 5 -6 76 30 76 38
0 3 -9 18 -21 33 -21 27 -57 34 -77 14z"/>
<path d="M856 518 c-50 -11 -91 -36 -107 -64 -7 -13 -44 -47 -82 -76 l-70 -52
32 -11 33 -11 -66 -54 -65 -55 162 -3 c195 -3 206 -1 205 36 0 15 2 46 6 69 4
23 4 52 0 65 -7 23 -7 22 -20 -7 -7 -16 -13 -23 -14 -14 0 9 -9 28 -21 43 -18
23 -18 26 -4 26 13 0 16 6 13 25 -3 14 -4 25 -2 25 2 0 18 -21 35 -47 43 -63
53 -70 77 -55 10 7 4 26 -22 84 -19 42 -38 78 -43 80 -4 3 -25 1 -47 -4z"/>
<path d="M1001 431 c-20 -15 -22 -21 -12 -39 14 -26 14 -26 51 -7 31 16 34 23
24 49 -8 21 -33 20 -63 -3z"/>
<path d="M1020 354 c-19 -7 -50 -13 -67 -13 -28 -1 -33 -5 -33 -26 0 -21 5
-25 29 -25 74 0 118 26 109 64 -2 11 -9 11 -38 0z"/>
<path d="M965 273 c-49 -5 -59 -14 -51 -47 5 -19 13 -26 30 -26 55 0 106 33
106 69 0 11 -9 11 -85 4z"/>
</g>
</svg>
