<?xml version="1.0" standalone="no"?>
<!DOCTYPE svg PUBLIC "-//W3C//DTD SVG 20010904//EN"
 "http://www.w3.org/TR/2001/REC-SVG-20010904/DTD/svg10.dtd">
<svg version="1.0" xmlns="http://www.w3.org/2000/svg"
 width="128.000000pt" height="128.000000pt" viewBox="10 -139 128.000000 128.000000"
 preserveAspectRatio="xMidYMid meet">
<metadata>
Created by potrace 1.15, written by Peter Selinger 2001-2017
</metadata>
<g transform="scale(0.1175,-0.1175)"
fill="#000000" stroke="none">
<path d="M586 1011 c-25 -33 -56 -63 -69 -67 -50 -15 -86 -53 -104 -112 -13
-43 -40 -85 -109 -172 l-92 -115 104 -3 104 -3 0 -169 0 -170 220 0 220 0 0
170 0 169 104 3 104 3 -74 92 c-59 74 -74 99 -74 126 0 97 -61 169 -161 191
-16 4 -43 27 -69 61 -23 30 -46 55 -50 55 -4 0 -28 -27 -54 -59z m214 -109
c59 -29 80 -72 80 -164 0 -120 -23 -151 -134 -183 -57 -17 -76 -35 -76 -74 0
-19 -6 -21 -51 -21 l-52 0 6 47 c6 58 39 91 123 123 32 12 64 26 71 32 8 7 13
37 13 84 0 90 -5 94 -120 94 -108 0 -117 -6 -126 -80 -7 -64 -14 -69 -71 -54
-20 5 -23 13 -23 50 0 78 36 136 96 154 16 4 74 9 129 9 77 1 108 -3 135 -17z
m-130 -568 c0 -54 -1 -56 -22 -50 -13 3 -35 6 -50 6 -26 0 -28 3 -28 43 0 24
3 47 7 50 3 4 26 7 50 7 l43 0 0 -56z"/>
</g>
</svg>
