<?xml version="1.0" standalone="no"?>
<svg version="1.0" viewBox="0 0 72 72" height="128pt" width="128pt" xmlns="http://www.w3.org/2000/svg" xmlns:xlink="http://www.w3.org/1999/xlink">
<g fill="#000">
<path d="M22.1 19.9L22.1 11.4 30.6 11.4 30.6 19.9 22.1 19.9ZM41.4 19.9L41.4 11.4 49.9 11.4 49.9 19.9 41.4 19.9ZM22.1 31L22.1 22.6 49.9 22.6 49.9 31 22.1 31ZM22.1 41L22.1 49.4 49.9 49.4 49.9 41 22.1 41ZM22.1 52.1L22.1 60.6 30.6 60.6 30.6 52.1 22.1 52.1ZM41.4 52.1L41.4 60.6 49.9 60.6 49.9 52.1 41.4 52.1Z"/>
</g>
</svg>