<?xml version="1.0" standalone="no"?>
<!DOCTYPE svg PUBLIC "-//W3C//DTD SVG 20010904//EN"
 "http://www.w3.org/TR/2001/REC-SVG-20010904/DTD/svg10.dtd">
<svg version="1.0" xmlns="http://www.w3.org/2000/svg"
 width="128.000000pt" height="128.000000pt" viewBox="10 -139 128.000000 128.000000"
 preserveAspectRatio="xMidYMid meet">
<metadata>
Created by potrace 1.15, written by Peter Selinger 2001-2017
</metadata>
<g transform="scale(0.1175,-0.1175)"
fill="#000000" stroke="none">
<path d="M485 1050 c-148 -31 -215 -70 -215 -125 0 -64 97 -109 266 -126 180
-17 373 14 433 70 64 60 31 117 -92 157 -69 23 -103 28 -217 30 -74 2 -153 -1
-175 -6z m309 -84 c81 -16 120 -32 111 -46 -23 -37 -351 -54 -469 -24 -73 19
-85 28 -56 44 69 37 285 50 414 26z"/>
<path d="M40 710 c0 -4 19 -28 41 -54 57 -65 107 -88 204 -95 l80 -6 -36 -22
c-23 -15 -52 -23 -79 -23 -38 0 -41 -2 -29 -17 25 -30 103 -73 133 -73 l29 0
-23 -25 c-13 -13 -32 -27 -43 -31 -18 -6 -17 -8 12 -26 24 -16 43 -19 76 -16
38 5 45 3 51 -15 5 -14 0 -26 -15 -38 -18 -14 -18 -18 -5 -23 9 -3 30 -6 49
-6 67 0 134 113 89 151 -33 27 -48 73 -47 144 1 80 -14 118 -57 140 -25 13
-38 13 -75 4 -68 -17 -238 -6 -302 19 -29 11 -53 17 -53 12z"/>
<path d="M1185 697 c-64 -25 -214 -34 -296 -18 -52 11 -64 10 -85 -4 -47 -30
-62 -69 -57 -143 5 -60 2 -71 -22 -106 -39 -58 -45 -78 -30 -112 18 -44 61
-74 105 -74 45 0 55 8 34 31 -9 10 -14 26 -12 36 3 14 11 17 45 15 25 -2 54 3
74 14 l34 17 -25 16 c-13 9 -33 24 -44 33 -21 17 -20 17 15 18 35 0 111 42
139 75 11 13 6 15 -31 15 -28 0 -57 8 -79 22 l-35 22 82 7 c97 7 152 35 209
104 20 25 35 47 33 49 -2 1 -26 -6 -54 -17z"/>
</g>
</svg>
