<?xml version="1.0" standalone="no"?>
<svg version="1.0" viewBox="0 0 72 72" height="128pt" width="128pt" xmlns="http://www.w3.org/2000/svg" xmlns:xlink="http://www.w3.org/1999/xlink">
<g fill="#000">
<path d="M53.6 38.9L53.6 38.9Q53.1 42.1 51.4 44.9 49.8 47.7 47.3 49.8L47.3 49.8Q48 53.2 48.3 57.3L48.3 57.3Q45.1 55.2 42.3 52.7L42.3 52.7Q39.3 53.8 36 53.8L36 53.8Q32.7 53.8 29.7 52.7L29.7 52.7Q27.1 55.1 23.7 57.3L23.7 57.3Q24 53.2 24.7 49.8L24.7 49.8Q22.2 47.7 20.6 44.9 18.9 42.1 18.4 38.9L18.4 38.9Q14.9 37.8 11.4 36L11.4 36Q15.4 34 18.4 33.1L18.4 33.1Q18.9 29.9 20.6 27.1 22.2 24.3 24.7 22.2L24.7 22.2Q24 18.8 23.7 14.7L23.7 14.7Q27.3 17.1 29.7 19.3L29.7 19.3Q32.7 18.2 36 18.2L36 18.2Q39.3 18.2 42.3 19.3L42.3 19.3Q44.9 16.9 48.3 14.7L48.3 14.7Q48 18.8 47.3 22.2L47.3 22.2Q49.8 24.3 51.4 27.1 53.1 29.9 53.6 33.1L53.6 33.1Q56.6 34 60.6 36L60.6 36Q57.1 37.8 53.6 38.9L53.6 38.9 53.6 38.9 53.6 38.9 53.6 38.9 53.6 38.9 53.6 38.9 53.6 38.9 53.6 38.9 53.6 38.9 53.6 38.9 53.6 38.9 53.6 38.9 53.6 38.9 53.6 38.9 53.6 38.9 53.6 38.9 53.6 38.9 53.6 38.9 53.6 38.9 53.6 38.9 53.6 38.9 53.6 38.9 53.6 38.9 53.6 38.9 53.6 38.9 53.6 38.9 53.6 38.9 53.6 38.9 53.6 38.9 53.6 38.9 53.6 38.9 53.6 38.9 53.6 38.9 53.6 38.9 53.6 38.9 53.6 38.9ZM31.8 21.4L31.8 21.4Q32.6 22.2 33.2 23L33.2 23Q31.9 23.6 31.9 24.7L31.9 24.7Q31.9 25.9 33.1 27.5 34.3 29.1 36 30.6L36 30.6Q37.7 29.1 38.9 27.5 40.1 25.9 40.1 24.7L40.1 24.7Q40.1 23.6 38.8 23L38.8 23Q39.4 22.2 40.2 21.4L40.2 21.4Q39.3 21.1 38.8 21L38.8 21 36 24.8 33.2 21Q32.7 21.1 31.8 21.4L31.8 21.4 31.8 21.4 31.8 21.4 31.8 21.4 31.8 21.4 31.8 21.4 31.8 21.4 31.8 21.4 31.8 21.4 31.8 21.4 31.8 21.4 31.8 21.4 31.8 21.4 31.8 21.4 31.8 21.4 31.8 21.4 31.8 21.4 31.8 21.4 31.8 21.4 31.8 21.4 31.8 21.4 31.8 21.4 31.8 21.4 31.8 21.4 31.8 21.4 31.8 21.4 31.8 21.4 31.8 21.4 31.8 21.4 31.8 21.4 31.8 21.4 31.8 21.4 31.8 21.4 31.8 21.4 31.8 21.4 31.8 21.4ZM21.6 30.9L21.6 30.9Q21.3 31.7 21.2 32.3L21.2 32.3Q22.6 32 23.3 32L23.3 32Q23.1 34.3 26.2 34.3L26.2 34.3Q28.2 34.3 31.4 33.3L31.4 33.3Q30.7 30.5 29.8 28.5 28.8 26.6 27.4 26.6L27.4 26.6Q26.8 26.6 26.2 27L26.2 27Q25.8 26.3 25.7 25.7L25.7 25.7 25.4 25Q24.7 25.7 24.4 26.1L24.4 26.1 26.3 30.4 21.6 30.9 21.6 30.9 21.6 30.9 21.6 30.9 21.6 30.9 21.6 30.9 21.6 30.9 21.6 30.9 21.6 30.9 21.6 30.9 21.6 30.9 21.6 30.9 21.6 30.9 21.6 30.9 21.6 30.9 21.6 30.9 21.6 30.9 21.6 30.9 21.6 30.9 21.6 30.9 21.6 30.9 21.6 30.9 21.6 30.9 21.6 30.9 21.6 30.9 21.6 30.9 21.6 30.9 21.6 30.9 21.6 30.9 21.6 30.9 21.6 30.9 21.6 30.9 21.6 30.9 21.6 30.9 21.6 30.9 21.6 30.9ZM47.6 26.1L47.6 26.1Q47.3 25.7 46.6 25L46.6 25 46.3 25.7Q46.2 26.3 45.8 27L45.8 27Q45.2 26.6 44.6 26.6L44.6 26.6Q43.2 26.6 42.2 28.5 41.3 30.5 40.6 33.3L40.6 33.3Q43.8 34.3 45.8 34.3L45.8 34.3Q48.9 34.3 48.7 32L48.7 32Q49.4 32 50.8 32.3L50.8 32.3Q50.7 31.7 50.4 30.9L50.4 30.9 45.7 30.4 47.6 26.1 47.6 26.1 47.6 26.1 47.6 26.1 47.6 26.1 47.6 26.1 47.6 26.1 47.6 26.1 47.6 26.1 47.6 26.1 47.6 26.1 47.6 26.1 47.6 26.1 47.6 26.1 47.6 26.1 47.6 26.1 47.6 26.1 47.6 26.1 47.6 26.1 47.6 26.1 47.6 26.1 47.6 26.1 47.6 26.1 47.6 26.1 47.6 26.1 47.6 26.1 47.6 26.1 47.6 26.1 47.6 26.1 47.6 26.1 47.6 26.1 47.6 26.1 47.6 26.1 47.6 26.1 47.6 26.1 47.6 26.1ZM24.4 45.9L24.4 45.9Q24.7 46.3 25.4 47L25.4 47Q26 45.3 26.2 44.9L26.2 44.9Q26.8 45.4 27.4 45.4L27.4 45.4Q28.8 45.4 29.8 43.4 30.7 41.5 31.4 38.7L31.4 38.7Q28.3 37.7 26.2 37.7L26.2 37.7Q23.1 37.7 23.3 40L23.3 40Q22.4 39.9 21.2 39.6L21.2 39.6Q21.4 40.4 21.6 41.1L21.6 41.1 26.3 41.6 24.4 45.9 24.4 45.9 24.4 45.9 24.4 45.9 24.4 45.9 24.4 45.9 24.4 45.9 24.4 45.9 24.4 45.9 24.4 45.9 24.4 45.9 24.4 45.9 24.4 45.9 24.4 45.9 24.4 45.9 24.4 45.9 24.4 45.9 24.4 45.9 24.4 45.9 24.4 45.9 24.4 45.9 24.4 45.9 24.4 45.9 24.4 45.9 24.4 45.9 24.4 45.9 24.4 45.9 24.4 45.9 24.4 45.9 24.4 45.9 24.4 45.9 24.4 45.9 24.4 45.9 24.4 45.9 24.4 45.9 24.4 45.9ZM45.8 44.9L45.8 44.9Q46 45.3 46.6 47L46.6 47Q47.3 46.3 47.6 45.9L47.6 45.9 45.7 41.6 50.4 41.1Q50.6 40.4 50.8 39.6L50.8 39.6Q49.6 39.9 48.7 40L48.7 40Q48.9 37.7 45.8 37.7L45.8 37.7Q43.7 37.7 40.6 38.7L40.6 38.7Q41.3 41.5 42.2 43.4 43.2 45.4 44.6 45.4L44.6 45.4Q45.2 45.4 45.8 44.9L45.8 44.9 45.8 44.9 45.8 44.9 45.8 44.9 45.8 44.9 45.8 44.9 45.8 44.9 45.8 44.9 45.8 44.9 45.8 44.9 45.8 44.9 45.8 44.9 45.8 44.9 45.8 44.9 45.8 44.9 45.8 44.9 45.8 44.9 45.8 44.9 45.8 44.9 45.8 44.9 45.8 44.9 45.8 44.9 45.8 44.9 45.8 44.9 45.8 44.9 45.8 44.9 45.8 44.9 45.8 44.9 45.8 44.9 45.8 44.9 45.8 44.9 45.8 44.9 45.8 44.9 45.8 44.9 45.8 44.9 45.8 44.9ZM40.2 50.6L40.2 50.6Q39.6 49.9 38.8 49L38.8 49Q40.1 48.4 40.1 47.3L40.1 47.3Q40.1 45.1 36 41.3L36 41.3Q31.9 45.1 31.9 47.3L31.9 47.3Q31.9 48.4 33.2 49L33.2 49Q32.4 49.9 31.8 50.6L31.8 50.6Q32.2 50.8 33.2 51L33.2 51 36 47.2 38.8 51Q39.8 50.8 40.2 50.6L40.2 50.6 40.2 50.6 40.2 50.6 40.2 50.6 40.2 50.6 40.2 50.6 40.2 50.6 40.2 50.6 40.2 50.6 40.2 50.6 40.2 50.6 40.2 50.6 40.2 50.6 40.2 50.6 40.2 50.6 40.2 50.6 40.2 50.6 40.2 50.6 40.2 50.6 40.2 50.6 40.2 50.6 40.2 50.6 40.2 50.6 40.2 50.6 40.2 50.6 40.2 50.6 40.2 50.6 40.2 50.6 40.2 50.6 40.2 50.6 40.2 50.6 40.2 50.6 40.2 50.6 40.2 50.6 40.2 50.6 40.2 50.6Z"/>
</g>
</svg>
