<?xml version="1.0" standalone="no"?>
<!DOCTYPE svg PUBLIC "-//W3C//DTD SVG 20010904//EN"
 "http://www.w3.org/TR/2001/REC-SVG-20010904/DTD/svg10.dtd">
<svg version="1.0" xmlns="http://www.w3.org/2000/svg"
 width="128.000000pt" height="128.000000pt" viewBox="10 -139 128.000000 128.000000"
 preserveAspectRatio="xMidYMid meet">
<metadata>
Created by potrace 1.15, written by Peter Selinger 2001-2017
</metadata>
<g transform="scale(0.1175,-0.1175)"
fill="#000000" stroke="none">
<path d="M592 1023 c-36 -14 -53 -109 -32 -183 15 -51 5 -66 -58 -90 -31 -12
-69 -35 -84 -51 -25 -27 -28 -36 -29 -107 0 -42 -3 -69 -7 -60 -4 10 -7 49 -7
87 0 63 3 73 29 100 15 16 39 32 52 35 29 8 44 41 44 96 0 80 -42 128 -100
115 -51 -11 -77 -87 -58 -173 13 -61 13 -61 -62 -89 -25 -9 -49 -20 -54 -24
-5 -4 7 -42 28 -85 28 -59 54 -94 109 -148 74 -73 248 -196 277 -196 31 0 205
124 280 200 68 69 113 138 134 207 7 21 1 26 -53 49 -34 15 -61 32 -62 38 -3
26 4 62 13 73 10 13 2 76 -14 110 -17 35 -59 47 -101 30 -19 -9 -37 -23 -40
-34 -26 -94 -13 -153 39 -172 60 -22 74 -52 72 -150 l-1 -86 -6 77 c-8 98 -25
123 -110 153 -35 13 -68 29 -72 37 -10 15 -2 67 13 85 21 26 -15 144 -47 157
-19 7 -74 7 -93 -1z"/>
</g>
</svg>
