<?xml version="1.0" standalone="no"?>
<svg version="1.0" viewBox="0 0 72 72" height="128pt" width="128pt" xmlns="http://www.w3.org/2000/svg" xmlns:xlink="http://www.w3.org/1999/xlink">
<g fill="#000">
<path d="M36 11.4L36 11.4Q41.2 11.4 45.5 13.9 49.9 16.5 52.5 20.9 55 25.2 55 30.4L55 30.4 47.2 30.4Q47.2 27.4 45.7 24.8 44.2 22.2 41.6 20.7 39.1 19.2 36 19.2L36 19.2Q32.9 19.2 30.4 20.7 27.8 22.2 26.3 24.8 24.8 27.4 24.8 30.4L24.8 30.4 17 30.4Q17 25.2 19.5 20.9 22.1 16.5 26.5 14 30.8 11.4 36 11.4L36 11.4 36 11.4ZM36 60.6L36 60.6Q34.5 60.6 33.3 59.9 32 59.1 31.3 57.9 30.5 56.6 30.5 55.1L30.5 55.1Q30.5 53.6 31.3 52.3 32 51.1 33.3 50.3 34.5 49.6 36 49.6L36 49.6Q37.5 49.6 38.7 50.3 40 51.1 40.8 52.3 41.5 53.6 41.5 55.1L41.5 55.1Q41.5 56.6 40.8 57.9 40 59.1 38.8 59.9 37.5 60.6 36 60.6L36 60.6 36 60.6Z"/>
</g>
</svg>
