<?xml version="1.0" standalone="no"?>
<!DOCTYPE svg PUBLIC "-//W3C//DTD SVG 20010904//EN"
 "http://www.w3.org/TR/2001/REC-SVG-20010904/DTD/svg10.dtd">
<svg version="1.0" xmlns="http://www.w3.org/2000/svg"
 width="128.000000pt" height="128.000000pt" viewBox="10 -139 128.000000 128.000000"
 preserveAspectRatio="xMidYMid meet">
<metadata>
Created by potrace 1.15, written by Peter Selinger 2001-2017
</metadata>
<g transform="scale(0.1175,-0.1175)"
fill="#000000" stroke="none">
<path d="M512 1134 c-93 -25 -156 -61 -219 -127 -100 -103 -143 -212 -143
-356 0 -148 46 -265 141 -362 127 -128 325 -170 519 -110 126 40 226 128 285
253 59 125 65 250 20 379 -82 230 -371 386 -603 323z m178 -90 c30 -4 61 -11
68 -17 18 -14 16 -107 -3 -107 -13 0 -207 74 -227 86 -12 8 4 35 26 45 12 4
35 6 51 4 17 -2 55 -7 85 -11z m221 -81 c73 -76 79 -89 79 -169 0 -79 -15
-134 -36 -134 -17 0 -69 69 -95 125 -26 56 -26 225 0 225 4 0 27 -21 52 -47z
m-574 -157 c-26 -121 -37 -146 -67 -146 -28 0 -43 25 -35 62 11 51 54 150 82
186 42 55 47 27 20 -102z m277 75 c106 -55 120 -71 85 -100 -63 -53 -211 -116
-284 -122 -39 -4 -40 -3 -37 26 6 54 33 176 44 201 14 31 56 55 83 47 11 -3
60 -26 109 -52z m215 -195 c19 -33 36 -75 39 -101 4 -42 2 -48 -31 -79 -52
-49 -194 -116 -259 -122 -74 -7 -107 15 -147 100 -17 36 -31 72 -31 80 0 9 19
15 61 19 82 7 194 63 257 127 55 57 63 55 111 -24z m237 -68 c-27 -118 -106
-257 -106 -189 0 36 67 241 85 261 33 36 41 8 21 -72z m-772 -39 c29 -23 82
-119 87 -159 3 -21 -1 -26 -22 -28 -19 -2 -34 6 -57 33 -47 53 -76 175 -42
175 4 0 19 -9 34 -21z m602 -186 c-25 -101 -27 -104 -64 -120 -56 -24 -184
-24 -211 1 -33 30 -27 46 19 46 49 0 91 17 161 64 30 20 64 36 77 36 21 0 23
-3 18 -27z m-416 -83 c47 -24 69 -57 45 -66 -20 -8 -109 46 -113 69 -5 23 19
22 68 -3z"/>
</g>
</svg>
