<?xml version="1.0" standalone="no"?>
<svg version="1.0" viewBox="0 0 72 72" height="128pt" width="128pt" xmlns="http://www.w3.org/2000/svg" xmlns:xlink="http://www.w3.org/1999/xlink">
<g fill="#000">
<path d="M36 50.3L36 50.3Q39.9 50.3 43.2 48.4 46.4 46.5 48.3 43.2 50.3 39.9 50.3 36L50.3 36Q50.3 32.2 48.3 28.9 46.4 25.6 43.2 23.7 39.9 21.7 36 21.7L36 21.7Q32.2 21.7 28.9 23.7 25.6 25.6 23.7 28.9 21.7 32.2 21.7 36L21.7 36Q21.7 39.9 23.7 43.2 25.6 46.5 28.9 48.4 32.2 50.3 36 50.3L36 50.3 36 50.3ZM36 27.7L36 27.7Q38.3 27.7 40.2 28.8 42.1 29.9 43.2 31.9 44.3 33.8 44.3 36L44.3 36Q44.3 38.3 43.2 40.2 42.1 42.1 40.2 43.2 38.3 44.3 36 44.3L36 44.3Q33.8 44.3 31.9 43.2 29.9 42.1 28.8 40.2 27.7 38.3 27.7 36L27.7 36Q27.7 33.8 28.8 31.9 29.9 29.9 31.9 28.8 33.8 27.7 36 27.7L36 27.7 36 27.7ZM36 41.7L36 41.7Q34.4 41.7 33.1 41 31.8 40.2 31 38.9 30.3 37.6 30.3 36L30.3 36Q30.3 34.5 31 33.1 31.8 31.8 33.1 31 34.4 30.3 36 30.3L36 30.3Q37.6 30.3 38.9 31 40.2 31.8 41 33.1 41.7 34.5 41.7 36L41.7 36Q41.7 37.6 41 38.9 40.2 40.2 38.9 41 37.6 41.7 36 41.7L36 41.7 36 41.7ZM31.9 19.7L31.9 11.4 40.1 11.4 40.1 19.7 31.9 19.7ZM32.1 60.6L32.1 52.3 40.3 52.3 40.3 60.6 32.1 60.6Z"/>
</g>
</svg>
