<?xml version="1.0" standalone="no"?>
<svg version="1.0" viewBox="0 0 72 72" height="128pt" width="128pt" xmlns="http://www.w3.org/2000/svg" xmlns:xlink="http://www.w3.org/1999/xlink">
<g fill="#000">
<path d="M46.1 46.5L46.1 46.5Q48.1 44.4 49.2 41.8 50.3 39.2 50.3 36.4L50.3 36.4Q50.3 32.5 48.4 29.2 46.4 25.9 43.2 24 39.9 22.1 36 22.1L36 22.1Q32.1 22.1 28.8 24 25.6 25.9 23.6 29.2 21.7 32.5 21.7 36.4L21.7 36.4Q21.7 39.2 22.8 41.8 23.9 44.4 25.9 46.5L25.9 46.5 30.2 42.1Q29.1 41 28.5 39.5 27.9 38 27.9 36.4L27.9 36.4Q27.9 34.2 29 32.3 30.1 30.4 31.9 29.3 33.8 28.2 36 28.2L36 28.2Q38.2 28.2 40.1 29.3 41.9 30.4 43 32.3 44.1 34.2 44.1 36.4L44.1 36.4Q44.1 38 43.5 39.5 42.9 41 41.7 42.1L41.7 42.1 46.1 46.5 46.1 46.5ZM42.2 36.4L42.2 36.4Q42.2 38 41.3 39.4 40.5 40.8 39.1 41.7 37.7 42.5 36 42.5L36 42.5Q34.3 42.5 32.9 41.7 31.5 40.8 30.7 39.4 29.8 38 29.8 36.4L29.8 36.4 42.2 36.4 42.2 36.4ZM36 60.5L36 60.5Q34.3 60.5 33.1 59.3 32 58.2 32 56.5L32 56.5Q32 54.8 33.1 53.6 34.3 52.5 36 52.5L36 52.5Q37.7 52.5 38.8 53.6 40 54.8 40 56.5L40 56.5Q40 58.2 38.8 59.3 37.7 60.5 36 60.5L36 60.5 36 60.5ZM21.6 20.3L21.6 11.5 50.4 11.5 50.4 20.3 21.6 20.3Z"/>
</g>
</svg>
