<?xml version="1.0" standalone="no"?>
<!DOCTYPE svg PUBLIC "-//W3C//DTD SVG 20010904//EN"
 "http://www.w3.org/TR/2001/REC-SVG-20010904/DTD/svg10.dtd">
<svg version="1.0" xmlns="http://www.w3.org/2000/svg"
 width="128.000000pt" height="128.000000pt" viewBox="10 -139 128.000000 128.000000"
 preserveAspectRatio="xMidYMid meet">
<metadata>
Created by potrace 1.15, written by Peter Selinger 2001-2017
</metadata>
<g transform="scale(0.1175,-0.1175)"
fill="#000000" stroke="none">
<path d="M595 1093 c-19 -27 -42 -68 -51 -93 -30 -86 -64 -150 -168 -318 -170
-275 -190 -327 -153 -398 23 -45 100 -111 145 -125 36 -10 45 -9 86 11 57 27
102 80 256 300 68 96 158 219 201 272 106 130 110 140 74 178 -40 41 -153 118
-256 174 -47 25 -89 46 -92 46 -4 0 -23 -21 -42 -47z m191 -109 c60 -36 115
-71 122 -76 28 -23 12 -59 -55 -127 -39 -38 -100 -118 -143 -185 -179 -280
-213 -328 -243 -347 -38 -23 -97 -25 -136 -4 -29 14 -61 68 -61 102 0 25 63
137 161 291 99 154 179 304 179 336 0 27 35 76 54 76 7 0 62 -30 122 -66z"/>
<path d="M509 653 c-52 -44 -189 -276 -189 -320 0 -26 39 -53 76 -53 29 0 44
7 68 33 35 38 216 318 223 348 5 18 0 19 -70 19 -67 0 -79 -3 -108 -27z"/>
<path d="M988 713 c-26 -30 -57 -99 -64 -141 -5 -35 -3 -44 19 -66 34 -34 106
-37 138 -5 32 32 22 103 -25 174 -20 30 -40 55 -45 55 -4 0 -15 -8 -23 -17z"/>
</g>
</svg>
