<?xml version="1.0" standalone="no"?>
<svg version="1.0" viewBox="0 0 72 72" height="128pt" width="128pt" xmlns="http://www.w3.org/2000/svg" xmlns:xlink="http://www.w3.org/1999/xlink">
<g fill="#000">
<path d="M56.6 41L56.6 41Q55.3 43.2 53.3 45.3 51.4 47.4 49.2 49.3 47 51.2 44.8 52.7 42.5 54.3 40.7 55.5 38.8 56.7 37.6 57.4 36.3 58.1 36 58.2L36 58.2Q35.7 58.1 34.4 57.4 33.2 56.7 31.3 55.5 29.5 54.3 27.2 52.7 25 51.2 22.8 49.3 20.6 47.4 18.7 45.3 16.7 43.2 15.4 41L15.4 41Q14.5 39.2 13.7 37.7 12.9 36.1 12.3 34.1L12.3 34.1Q13.4 32.9 14.6 32.9L14.6 32.9Q15 32.8 15.4 32.7 15.9 32.5 16.2 32.4L16.2 32.4Q16.6 32.3 16.9 32.2L16.9 32.2 19.5 30.7 19.9 29.1 19.5 28.7Q19.4 28.3 19.3 27.9 19.2 27.5 19.2 27.2L19.2 27.2Q19.2 26.8 19.2 26.4L19.2 26.4Q19.1 26.4 19 26.4L19 26.4Q18.8 26.3 18.8 26.1L18.8 26.1Q18.5 25 18.5 24.5 18.6 24 18.7 23.7L18.7 23.7Q18.8 23.4 19.2 23.4L19.2 23.4Q19 21.2 19.6 20.1 20.1 18.9 20.8 18.4 21.6 17.8 22.3 17.7 23.1 17.6 23.4 17.6L23.4 17.6Q23.7 17.6 24.5 17.7 25.3 17.8 26.1 18.4 26.9 18.9 27.5 20.1 28.1 21.2 28 23.4L28 23.4Q28.2 23.4 28.3 23.7L28.3 23.7Q28.3 24 28.3 24.5 28.3 25 28 26.1L28 26.1 28 26.4Q27.9 26.9 27.7 27.4L27.7 27.4Q27.6 27.7 27.5 28.2 27.4 28.7 27.2 29.1L27.2 29.1Q25.2 29.5 23.9 30.4 22.6 31.2 21.8 32.4 21.1 33.5 21 34.9 20.8 36.3 21.1 37.9L21.1 37.9Q21.2 38.6 21.3 39 21.4 39.4 21.4 39.6 21.4 39.9 21.3 40 21.2 40.1 21.1 40.2L21.1 40.2Q21 40.6 21.1 41L21.1 41Q21.1 41.4 21.3 42 21.4 42.6 21.9 43.3L21.9 43.3 21.9 41.7Q21.9 40.9 22 40.7 22.1 40.4 22.1 40.3 22.2 40.1 22.2 39.6 22.1 39.2 21.9 37.9L21.9 37.9Q21.6 36.5 21.9 35.2 22.3 34 23 33 23.6 32 24.5 31.4 25.3 30.8 26.1 30.7L26.1 30.7Q26.6 30.5 27.1 30.4 27.5 30.2 27.8 30.1L27.8 30.1Q28.1 30 28.3 29.9L28.3 29.9Q28.5 29.9 29 29.7 29.5 29.4 30 29.1L30 29.1Q30.7 28.8 31.4 28.4L31.4 28.4 32.2 26.4Q32.2 26.2 32 26.1 31.8 25.9 31.8 25.7L31.8 25.7Q31.6 25.4 31.5 25 31.4 24.6 31.3 24.2 31.3 23.9 31.3 23.6 31.3 23.4 31.4 23.4L31.4 23.4 31 23.4Q30.8 22.1 30.7 21.4 30.7 20.7 30.8 20.4L30.8 20.4Q30.9 20 31 19.9L31 19.9Q30.9 17.6 31.6 16.4 32.2 15.2 33.1 14.6 34 14 34.9 13.9 35.7 13.8 36 13.8L36 13.8Q36.3 13.8 37.1 13.9 38 14 38.9 14.6 39.8 15.2 40.4 16.4 41.1 17.6 41 19.9L41 19.9Q41.3 20 41.4 20.4L41.4 20.4Q41.6 20.7 41.6 21.4 41.6 22.1 41.3 23.4L41.3 23.4 40.6 23.4Q40.6 23.8 40.5 24.3L40.5 24.3Q40.5 24.6 40.4 25 40.4 25.4 40.2 25.7L40.2 25.7Q40.2 25.9 40 26.1 39.8 26.2 39.8 26.4L39.8 26.4 40.6 28.4Q41.3 28.8 42 29.1L42 29.1Q42.5 29.4 43 29.7 43.5 29.9 43.6 29.9L43.6 29.9Q44 30 44.4 30.1L44.4 30.1Q44.8 30.2 45.3 30.4 45.7 30.5 46.3 30.7L46.3 30.7Q47 30.8 47.9 31.4 48.8 32 49.4 33 50.1 34 50.4 35.2 50.8 36.5 50.5 37.9L50.5 37.9Q50.4 39.2 50.4 39.6 50.3 40.1 50.4 40.3 50.4 40.4 50.5 40.7 50.5 40.9 50.5 41.7L50.5 41.7Q50.5 42 50.6 42.5 50.6 43 50.9 43.3L50.9 43.3Q51.2 42.6 51.3 42 51.4 41.4 51.4 41L51.4 41Q51.4 40.6 51.3 40.2L51.3 40.2 51.3 37.9Q51.6 36.3 51.4 34.9 51.3 33.5 50.5 32.4 49.8 31.2 48.5 30.4 47.2 29.5 45.2 29.1L45.2 29.1Q45 28.7 44.9 28.2 44.8 27.7 44.6 27.4L44.6 27.4Q44.5 26.9 44.4 26.4L44.4 26.4 44 26.1Q43.8 25 43.9 24.5 43.9 24 44.1 23.7L44.1 23.7Q44.2 23.4 44.4 23.4L44.4 23.4Q44.3 21.9 44.5 21 44.8 20 45.2 19.3 45.7 18.7 46.3 18.4 46.8 18 47.4 17.9 47.9 17.7 48.4 17.7 48.8 17.6 49 17.6L49 17.6Q49.3 17.6 50 17.7 50.8 17.8 51.6 18.4 52.3 18.9 53 20.1 53.6 21.2 53.6 23.4L53.6 23.4Q53.8 23.4 53.9 23.7L53.9 23.7Q53.9 24 53.9 24.5 53.9 25 53.6 26.1L53.6 26.1Q53.6 26.3 53.4 26.4L53.4 26.4Q53.3 26.4 53.2 26.4L53.2 26.4Q53.1 26.8 53 27.2L53 27.2Q52.8 27.9 52.8 28.7L52.8 28.7 52.5 29.1 52.8 30.7Q53.6 31.1 54.2 31.4L54.2 31.4Q54.7 31.7 55.2 31.9 55.7 32.2 55.9 32.2L55.9 32.2Q56.1 32.3 56.4 32.4L56.4 32.4Q56.7 32.5 57 32.7 57.3 32.8 57.8 32.9L57.8 32.9Q58.1 32.9 58.6 33.2 59.1 33.5 59.7 34.1L59.7 34.1Q59.1 35.8 58.4 37.5 57.8 39.2 56.6 41L56.6 41 56.6 41 56.6 41 56.6 41 56.6 41 56.6 41 56.6 41 56.6 41 56.6 41 56.6 41 56.6 41 56.6 41 56.6 41 56.6 41 56.6 41 56.6 41 56.6 41 56.6 41 56.6 41 56.6 41 56.6 41 56.6 41 56.6 41 56.6 41 56.6 41 56.6 41 56.6 41 56.6 41 56.6 41 56.6 41 56.6 41 56.6 41 56.6 41 56.6 41 56.6 41 56.6 41Z"/>
</g>
</svg>
