<?xml version="1.0" standalone="no"?>
<svg version="1.0" viewBox="0 0 72 72" height="128pt" width="128pt" xmlns="http://www.w3.org/2000/svg" xmlns:xlink="http://www.w3.org/1999/xlink">
<g fill="#000">
<path d="M53 48.1L53 48.1Q52.9 48.5 52.4 49.2 51.9 49.9 51 50.7 50.2 51.6 49.2 52.6 48.2 53.6 47.1 54.6L47.1 54.6Q44.7 56.8 41.5 59.5L41.5 59.5Q41.4 58.8 41.4 57.6 41.4 56.4 41.5 54.9 41.5 53.4 41.7 51.8 41.8 50.2 42 48.6L42 48.6Q42.3 44.9 42.9 40.7L42.9 40.7Q43.2 41 43.4 41.2 43.7 41.4 44 41.6L44 41.6Q44.2 41.8 44.6 42L44.6 42Q46.4 40.5 47.4 38.9 48.4 37.3 48.9 36L48.9 36Q49.5 34.5 49.6 33L49.6 33Q48.1 32.5 46.9 32.4 45.7 32.2 44.9 32.3L44.9 32.3Q44 32.4 43.2 32.6L43.2 32.6Q42.5 32.9 41.8 33.5 41.1 34 40.4 34.8 39.8 35.5 39.2 36.4 38.7 37.3 38.2 38.2L38.2 38.2Q37.1 40.3 36.2 42.7L36.2 42.7Q35.2 40.3 34.1 38.2L34.1 38.2Q33.6 37.3 33 36.4 32.4 35.5 31.8 34.8 31.1 34 30.3 33.5 29.6 32.9 28.8 32.6L28.8 32.6Q28.1 32.4 27.2 32.3L27.2 32.3Q26.3 32.2 25.2 32.4 24.1 32.5 22.7 33L22.7 33Q22.7 34.2 23.1 35.6L23.1 35.6Q23.5 36.8 24.3 38.4 25.1 39.9 26.8 41.4L26.8 41.4Q27.3 41.4 27.9 41.3L27.9 41.3Q28.3 41.2 28.7 41.1 29.2 41 29.4 40.7L29.4 40.7Q29.9 44.9 30.3 48.6L30.3 48.6Q30.4 50.2 30.5 51.8 30.6 53.4 30.7 54.9 30.8 56.4 30.8 57.6 30.8 58.8 30.8 59.5L30.8 59.5Q27.7 56.8 25.2 54.6L25.2 54.6Q24.1 53.6 23 52.6 22 51.6 21.1 50.7 20.3 49.9 19.7 49.2 19.1 48.5 19 48.1L19 48.1 18.7 44.8Q18.9 43.3 19 42L19 42Q19.2 40.9 19.3 39.8 19.4 38.6 19.4 38L19.4 38Q19.4 36 19.4 34.3L19.4 34.3Q19.4 33.6 19.3 32.9 19.3 32.2 19.2 31.6 19.2 31.1 19.1 30.7 19.1 30.4 19 30.3L19 30.3Q19 28.1 19.3 25.9L19.3 25.9Q19.6 24 20.3 21.9 21 19.8 22.4 18.2L22.4 18.2Q23.6 16.6 25.6 15.3L25.6 15.3Q26.5 14.8 27.5 14.3 28.6 13.8 29.9 13.4 31.2 13 32.8 12.7 34.3 12.5 36.2 12.5L36.2 12.5Q39.7 12.5 42.3 13.4 44.9 14.3 46.6 15.3L46.6 15.3Q48.6 16.6 49.9 18.2L49.9 18.2Q51.2 19.8 51.8 21.9 52.4 24 52.7 25.9L52.7 25.9Q53 28.1 53 30.3L53 30.3 53 38Q52.9 38.6 52.9 39.8 52.9 40.9 53 42L53 42Q53.1 43.3 53.3 44.8L53.3 44.8 53 48.1 53 48.1 53 48.1 53 48.1 53 48.1 53 48.1 53 48.1 53 48.1 53 48.1 53 48.1 53 48.1 53 48.1 53 48.1 53 48.1 53 48.1 53 48.1 53 48.1 53 48.1 53 48.1 53 48.1 53 48.1 53 48.1 53 48.1 53 48.1 53 48.1 53 48.1 53 48.1 53 48.1 53 48.1 53 48.1 53 48.1 53 48.1 53 48.1 53 48.1 53 48.1 53 48.1Z"/>
</g>
</svg>
