<?xml version="1.0" standalone="no"?>
<svg version="1.0" viewBox="0 0 72 72" height="128pt" width="128pt" xmlns="http://www.w3.org/2000/svg" xmlns:xlink="http://www.w3.org/1999/xlink">
<g fill="#000">
<path d="M20.1 24.2L20.1 24.2Q20.1 22.6 21.4 21.5 22.7 20.4 25.6 19.7L25.6 19.7Q27.5 19 30.2 18.6 32.9 18.2 35.7 18.2L35.7 18.2Q41.8 18.2 46.1 19.7L46.1 19.7Q48.8 20.4 50.2 21.5 51.6 22.6 51.6 24.2L51.6 24.2Q51.6 25.6 50.2 26.7 48.8 27.8 46.1 28.7L46.1 28.7Q44 29.2 41.4 29.5 38.8 29.8 35.7 29.8L35.7 29.8Q32.9 29.8 30.2 29.5 27.5 29.2 25.6 28.7L25.6 28.7Q22.7 27.8 21.4 26.7 20.1 25.6 20.1 24.2L20.1 24.2 20.1 24.2 20.1 24.2 20.1 24.2 20.1 24.2 20.1 24.2 20.1 24.2 20.1 24.2 20.1 24.2 20.1 24.2 20.1 24.2 20.1 24.2 20.1 24.2 20.1 24.2 20.1 24.2 20.1 24.2 20.1 24.2 20.1 24.2 20.1 24.2 20.1 24.2 20.1 24.2 20.1 24.2 20.1 24.2 20.1 24.2 20.1 24.2 20.1 24.2 20.1 24.2 20.1 24.2 20.1 24.2 20.1 24.2 20.1 24.2 20.1 24.2 20.1 24.2 20.1 24.2 20.1 24.2 20.1 24.2ZM47.8 24.2L47.8 24.2Q47.4 23.8 46.5 23.4 45.5 23 44 22.6 42.5 22.3 40.4 22 38.4 21.8 35.7 21.8L35.7 21.8Q33.1 21.8 31.1 22 29 22.3 27.5 22.6 26.1 23 25.1 23.4 24.2 23.8 23.9 24.2L23.9 24.2Q24.2 24.5 25.1 24.8 26.1 25.2 27.5 25.5 29 25.9 31.1 26.1 33.1 26.3 35.7 26.3L35.7 26.3Q38.4 26.3 40.4 26.1 42.5 25.9 44 25.5 45.5 25.2 46.5 24.8 47.4 24.5 47.8 24.2L47.8 24.2 47.8 24.2 47.8 24.2 47.8 24.2 47.8 24.2 47.8 24.2 47.8 24.2 47.8 24.2 47.8 24.2 47.8 24.2 47.8 24.2 47.8 24.2 47.8 24.2 47.8 24.2 47.8 24.2 47.8 24.2 47.8 24.2 47.8 24.2 47.8 24.2 47.8 24.2 47.8 24.2 47.8 24.2 47.8 24.2 47.8 24.2 47.8 24.2 47.8 24.2 47.8 24.2 47.8 24.2 47.8 24.2 47.8 24.2 47.8 24.2 47.8 24.2 47.8 24.2 47.8 24.2 47.8 24.2 47.8 24.2ZM9.8 32.6L9.8 32.6Q10 33 10.4 33.8 10.9 34.5 11.6 35.4 12.4 36.4 13.4 37.3 14.5 38.3 16 39 17.6 39.6 19.6 39.9 21.6 40.2 24.1 39.7L24.1 39.7Q23.4 40.7 22.4 41.3L22.4 41.3Q21.5 41.8 20.3 42.1 19 42.4 17.2 42L17.2 42Q18.5 43.4 19.9 44.4L19.9 44.4Q21 45.2 22.4 45.8 23.8 46.4 25.1 45.9L25.1 45.9Q24.5 46.6 23.9 47.1L23.9 47.1Q23.4 47.5 22.7 48 22 48.4 21.3 48.5L21.3 48.5Q22.2 49.4 23.3 49.9L23.3 49.9Q24.1 50.3 25.2 50.4 26.3 50.6 27.3 49.9L27.3 49.9Q27.5 49.8 27.8 50.1 28.1 50.4 28.2 50.9 28.4 51.4 28 52 27.6 52.6 26.3 53.2L26.3 53.2Q26.9 53.3 27.5 53.5L27.5 53.5Q28.1 53.6 28.8 53.7 29.5 53.8 30.3 53.8L30.3 53.8Q31.6 52.9 32.5 51.9 33.4 51 33.8 50 34.1 49.1 33.8 48.1 33.5 47.1 32.2 46.1L32.2 46.1Q32 45.9 31.8 45.3 31.5 44.7 31.3 43.9 31.1 43 31 42 31 40.9 31.2 39.7L31.2 39.7Q31.4 38.9 31.1 37.9 30.8 36.8 30.1 36 29.4 35.1 28.4 34.6 27.4 34.2 26.3 34.5L26.3 34.5Q25.6 34.8 24.5 35 23.3 35.1 21.9 35.2 20.4 35.3 18.8 35.2 17.2 35.1 15.6 34.8 14 34.5 12.5 34 11 33.5 9.8 32.6L9.8 32.6 9.8 32.6 9.8 32.6 9.8 32.6 9.8 32.6 9.8 32.6 9.8 32.6 9.8 32.6 9.8 32.6 9.8 32.6 9.8 32.6 9.8 32.6 9.8 32.6 9.8 32.6 9.8 32.6 9.8 32.6 9.8 32.6 9.8 32.6 9.8 32.6 9.8 32.6 9.8 32.6 9.8 32.6 9.8 32.6 9.8 32.6 9.8 32.6 9.8 32.6 9.8 32.6 9.8 32.6 9.8 32.6 9.8 32.6 9.8 32.6 9.8 32.6 9.8 32.6 9.8 32.6 9.8 32.6 9.8 32.6ZM62.2 32.6L62.2 32.6Q62 33 61.6 33.8 61.1 34.5 60.4 35.4 59.6 36.4 58.6 37.3 57.5 38.3 56 39 54.4 39.6 52.4 39.9 50.4 40.2 47.9 39.7L47.9 39.7Q48.5 40.7 49.6 41.3L49.6 41.3Q50.4 41.8 51.7 42.1 53 42.4 54.8 42L54.8 42Q53.4 43.4 52 44.4L52 44.4Q51.4 44.8 50.8 45.2 50.1 45.5 49.4 45.8 48.7 46 48.1 46.1 47.4 46.1 46.7 45.9L46.7 45.9Q47.3 46.6 48 47.1L48 47.1Q48.5 47.5 49.2 48 49.9 48.4 50.5 48.5L50.5 48.5Q49.6 49.4 48.5 49.9L48.5 49.9Q47.7 50.3 46.6 50.4 45.5 50.6 44.5 49.9L44.5 49.9Q44.4 49.8 44.1 50.1 43.8 50.4 43.7 50.9 43.6 51.4 44 52 44.3 52.6 45.6 53.2L45.6 53.2Q45 53.3 44.3 53.5L44.3 53.5Q43.8 53.6 43 53.7 42.3 53.8 41.5 53.8L41.5 53.8Q40.2 52.9 39.3 51.9 38.4 51 38.1 50 37.8 49.1 38.1 48.1 38.4 47.1 39.6 46.1L39.6 46.1Q39.8 45.9 40.1 45.3 40.4 44.7 40.7 43.9 40.9 43 40.9 42 40.9 40.9 40.6 39.7L40.6 39.7Q40.3 38.9 40.7 37.9 41 36.8 41.8 36 42.5 35.1 43.5 34.6 44.5 34.2 45.6 34.5L45.6 34.5Q46.7 34.9 48.7 35.1 50.7 35.3 53.2 35.2 55.6 35.1 58 34.5 60.4 33.9 62.2 32.6L62.2 32.6 62.2 32.6 62.2 32.6 62.2 32.6 62.2 32.6 62.2 32.6 62.2 32.6 62.2 32.6 62.2 32.6 62.2 32.6 62.2 32.6 62.2 32.6 62.2 32.6 62.2 32.6 62.2 32.6 62.2 32.6 62.2 32.6 62.2 32.6 62.2 32.6 62.2 32.6 62.2 32.6 62.2 32.6 62.2 32.6 62.2 32.6 62.2 32.6 62.2 32.6 62.2 32.6 62.2 32.6 62.2 32.6 62.2 32.6 62.2 32.6 62.2 32.6 62.2 32.6 62.2 32.6 62.2 32.6 62.2 32.6Z"/>
</g>
</svg>
