<?xml version="1.0" standalone="no"?>
<svg version="1.0" viewBox="0 0 72 72" height="128pt" width="128pt" xmlns="http://www.w3.org/2000/svg" xmlns:xlink="http://www.w3.org/1999/xlink">
<g fill="#000">
<path d="M31.3 32.8L31.3 32.8Q30.9 32.6 30.4 32.1 29.8 31.6 29.4 31.1 28.9 30.6 28.6 30.1 28.3 29.7 28.4 29.7L28.4 29.7Q28.5 29.6 29.1 29.3 29.6 28.9 30.3 28.5 31 28.1 31.7 27.6 32.4 27.1 32.9 26.8L32.9 26.8Q32.8 26.6 32.4 26.4 32.1 26.2 31.3 26 30.5 25.7 29.1 25.3 27.8 25 25.7 24.6L25.7 24.6Q24.8 25.8 23.9 27.5L23.9 27.5Q23.2 28.9 22.6 30.9 22 32.8 21.9 35.3L21.9 35.3Q22.1 35.2 22.7 35.2 23.2 35.2 23.9 35.3 24.5 35.4 25.2 35.5 25.9 35.7 26.4 36L26.4 36Q27 36.3 27.5 36.7 27.9 37.2 28.2 37.7 28.4 38.2 28.5 38.7 28.6 39.2 28.5 39.6L28.5 39.6Q29.3 39.7 30 40.1L30 40.1Q30.4 40.4 30.8 41 31.3 41.6 31.1 42.7L31.1 42.7Q31.7 42.7 32.2 43.1 32.6 43.4 32.7 44 32.9 44.5 32.9 45.1 32.9 45.8 32.8 46.3L32.8 46.3Q32.6 46.6 32.4 47.1 32.1 47.6 31.9 48.1L31.9 48.1 32.2 48.5Q33.6 49.4 34.6 49.6 35.5 49.7 36.1 49.5L36.1 49.5Q36.8 49.4 37.3 48.8L37.3 48.8 33.6 45.2 34.3 44.1 38.7 48.5Q39.5 48.7 40.1 48.7L40.1 48.7Q40.7 48.7 41.2 48.4 41.6 48.2 41.8 47.4L41.8 47.4Q40.8 46.6 39.8 45.7 38.7 44.7 37.9 43.9L37.9 43.9Q36.8 42.9 35.8 42L35.8 42 36.7 40.7Q38.3 42.2 39.6 43.3L39.6 43.3Q40.1 43.8 40.6 44.3 41.2 44.8 41.6 45.2 42 45.6 42.3 45.9 42.6 46.2 42.7 46.3L42.7 46.3Q42.8 46.6 43.2 46.5 43.5 46.5 43.9 46.2 44.3 46 44.6 45.6 44.9 45.2 44.9 44.7L44.9 44.7Q44.7 44.5 44.4 44.2 44 43.9 43.5 43.4 43 43 42.5 42.4 41.9 41.9 41.3 41.3L41.3 41.3Q39.9 40.1 38.3 38.6L38.3 38.6 39.2 37.3Q40.9 38.8 42.2 40L42.2 40Q42.8 40.6 43.4 41.1 43.9 41.6 44.4 42 44.9 42.4 45.3 42.7 45.6 43 45.8 43.1L45.8 43.1Q46.3 43.6 46.9 43.7 47.4 43.9 47.9 43.1L47.9 43.1Q48.3 42.4 48 41.4 47.7 40.5 47 39.8L47 39.8Q46.9 39.7 46.1 39 45.2 38.2 44 37 42.8 35.9 41.3 34.4 39.8 33 38.3 31.7L38.3 31.7Q37.1 32.6 36 33 34.9 33.4 33.9 33.4 33 33.5 32.3 33.3 31.6 33 31.3 32.8L31.3 32.8 31.3 32.8 31.3 32.8 31.3 32.8 31.3 32.8 31.3 32.8 31.3 32.8 31.3 32.8 31.3 32.8 31.3 32.8 31.3 32.8 31.3 32.8 31.3 32.8 31.3 32.8 31.3 32.8 31.3 32.8 31.3 32.8 31.3 32.8 31.3 32.8 31.3 32.8 31.3 32.8 31.3 32.8 31.3 32.8 31.3 32.8 31.3 32.8 31.3 32.8 31.3 32.8 31.3 32.8 31.3 32.8 31.3 32.8 31.3 32.8 31.3 32.8 31.3 32.8 31.3 32.8 31.3 32.8 31.3 32.8ZM39.6 26.4L39.6 26.4Q38.6 26.3 38 26.3 37.3 26.3 36.8 26.5 36.3 26.6 35.7 27 35.2 27.3 34.3 27.9L34.3 27.9Q33.6 28.4 33 28.8 32.3 29.2 31.8 29.5L31.8 29.5Q31.2 29.9 30.8 30.2L30.8 30.2Q30.9 30.7 31.3 31.1L31.3 31.1Q31.5 31.5 32 31.7 32.4 32 33.1 32L33.1 32Q33.9 32 34.7 31.7 35.6 31.4 36.3 31 37.1 30.6 37.7 30.3 38.2 29.9 38.3 29.8L38.3 29.8Q38.5 29.7 38.7 29.8 38.9 29.8 39.2 30 39.4 30.2 39.7 30.4 39.9 30.6 40.1 30.8L40.1 30.8Q40.2 30.9 40.6 31.3 41 31.6 41.6 32.2 42.2 32.7 42.9 33.4 43.6 34.1 44.4 34.8L44.4 34.8Q46.1 36.4 48.3 38.4L48.3 38.4Q49.3 38.7 50.2 38.6L50.2 38.6Q51 38.6 52 38.2 52.9 37.8 53.8 36.7L53.8 36.7Q52.3 34.1 51.3 32.3 50.3 30.5 49.7 29.4L49.7 29.4Q48.9 28.1 48.5 27.3L48.5 27.3Q46.8 27.1 45.1 27L45.1 27Q43.7 26.9 42.2 26.7 40.7 26.6 39.6 26.4L39.6 26.4 39.6 26.4 39.6 26.4 39.6 26.4 39.6 26.4 39.6 26.4 39.6 26.4 39.6 26.4 39.6 26.4 39.6 26.4 39.6 26.4 39.6 26.4 39.6 26.4 39.6 26.4 39.6 26.4 39.6 26.4 39.6 26.4 39.6 26.4 39.6 26.4 39.6 26.4 39.6 26.4 39.6 26.4 39.6 26.4 39.6 26.4 39.6 26.4 39.6 26.4 39.6 26.4 39.6 26.4 39.6 26.4 39.6 26.4 39.6 26.4 39.6 26.4 39.6 26.4 39.6 26.4 39.6 26.4 39.6 26.4ZM27.3 40.9L27.3 40.9Q27.8 40.7 28.2 41 28.7 41.2 29.1 41.7 29.4 42.1 29.5 42.7 29.7 43.3 29.5 43.9L29.5 43.9Q30 43.8 30.4 43.9 30.8 44.1 31 44.4 31.3 44.8 31.3 45.2 31.4 45.7 31.3 46.1L31.3 46.1Q31 46.7 30.7 47.4 30.3 48 30 48.3L30 48.3Q29.9 48.7 29.2 48.8 28.5 48.8 27.9 48.1L27.9 48.1Q27.5 47.8 26.7 46.9 25.8 45.9 24.8 44.8 23.8 43.7 22.9 42.7 21.9 41.6 21.3 40.9L21.3 40.9Q20.7 40.3 20.5 39.6 20.4 39 20.5 38.5 20.6 38 20.9 37.6 21.2 37.2 21.5 37.1L21.5 37.1Q21.7 37 22.2 36.9 22.7 36.8 23.4 36.8 24.1 36.8 24.8 37 25.6 37.2 26.1 37.7 26.7 38.1 27.1 38.9 27.4 39.7 27.3 40.9L27.3 40.9 27.3 40.9 27.3 40.9 27.3 40.9 27.3 40.9 27.3 40.9 27.3 40.9 27.3 40.9 27.3 40.9 27.3 40.9 27.3 40.9 27.3 40.9 27.3 40.9 27.3 40.9 27.3 40.9 27.3 40.9 27.3 40.9 27.3 40.9 27.3 40.9 27.3 40.9 27.3 40.9 27.3 40.9 27.3 40.9 27.3 40.9 27.3 40.9 27.3 40.9 27.3 40.9 27.3 40.9 27.3 40.9 27.3 40.9 27.3 40.9 27.3 40.9 27.3 40.9 27.3 40.9 27.3 40.9 27.3 40.9ZM36 12.3L36 12.3Q39.3 12.3 42.3 13.1 45.3 14 48 15.5 50.6 17.1 52.8 19.2 54.9 21.4 56.5 24 58 26.7 58.9 29.7 59.7 32.7 59.7 36L59.7 36Q59.7 39.3 58.9 42.3 58 45.3 56.5 48 54.9 50.6 52.8 52.8 50.6 54.9 48 56.5 45.3 58 42.3 58.9 39.3 59.7 36 59.7L36 59.7Q32.7 59.7 29.7 58.9 26.6 58 24 56.5 21.4 54.9 19.2 52.8 17.1 50.6 15.5 48 14 45.3 13.1 42.3 12.3 39.3 12.3 36L12.3 36Q12.3 32.7 13.1 29.7 14 26.7 15.5 24 17.1 21.4 19.2 19.2 21.4 17.1 24 15.5 26.6 14 29.7 13.1 32.7 12.3 36 12.3L36 12.3 36 12.3 36 12.3 36 12.3 36 12.3 36 12.3 36 12.3 36 12.3 36 12.3 36 12.3 36 12.3 36 12.3 36 12.3 36 12.3 36 12.3 36 12.3 36 12.3 36 12.3 36 12.3 36 12.3 36 12.3 36 12.3 36 12.3 36 12.3 36 12.3 36 12.3 36 12.3 36 12.3 36 12.3 36 12.3 36 12.3 36 12.3 36 12.3 36 12.3 36 12.3 36 12.3ZM36 56.8L36 56.8Q38.8 56.8 41.5 56.1 44.1 55.3 46.4 53.9 48.7 52.6 50.6 50.7 52.5 48.8 53.8 46.5 55.2 44.2 55.9 41.5 56.6 38.8 56.6 36L56.6 36Q56.6 33.2 55.9 30.5 55.2 27.8 53.8 25.5 52.5 23.2 50.6 21.3 48.7 19.4 46.4 18.1 44.1 16.7 41.5 15.9 38.8 15.2 36 15.2L36 15.2Q31.7 15.2 27.9 16.8 24.2 18.5 21.3 21.3 18.5 24.2 16.8 27.9 15.2 31.7 15.2 36L15.2 36Q15.2 40.3 16.8 44.1 18.5 47.8 21.3 50.7 24.2 53.5 27.9 55.2 31.7 56.8 36 56.8L36 56.8 36 56.8 36 56.8 36 56.8 36 56.8 36 56.8 36 56.8 36 56.8 36 56.8 36 56.8 36 56.8 36 56.8 36 56.8 36 56.8 36 56.8 36 56.8 36 56.8 36 56.8 36 56.8 36 56.8 36 56.8 36 56.8 36 56.8 36 56.8 36 56.8 36 56.8 36 56.8 36 56.8 36 56.8 36 56.8 36 56.8 36 56.8 36 56.8 36 56.8 36 56.8 36 56.8Z"/>
</g>
</svg>
