<?xml version="1.0" standalone="no"?>
<!DOCTYPE svg PUBLIC "-//W3C//DTD SVG 20010904//EN"
 "http://www.w3.org/TR/2001/REC-SVG-20010904/DTD/svg10.dtd">
<svg version="1.0" xmlns="http://www.w3.org/2000/svg"
 width="128.000000pt" height="128.000000pt" viewBox="10 -139 128.000000 128.000000"
 preserveAspectRatio="xMidYMid meet">
<metadata>
Created by potrace 1.15, written by Peter Selinger 2001-2017
</metadata>
<g transform="scale(0.1175,-0.1175)"
fill="#000000" stroke="none">
<path d="M401 1024 c-17 -14 -31 -29 -31 -33 0 -3 39 -12 87 -18 95 -13 109
-8 91 33 -22 47 -101 57 -147 18z"/>
<path d="M773 1031 c-36 -22 -44 -50 -15 -52 9 0 42 0 72 1 92 2 112 15 66 45
-40 26 -87 28 -123 6z"/>
<path d="M400 920 c-75 -14 -110 -55 -110 -129 0 -29 -14 -67 -49 -133 -53
-101 -69 -149 -81 -246 -10 -76 1 -119 37 -155 64 -61 190 -77 273 -34 58 29
79 60 87 127 3 30 10 61 16 68 6 7 34 12 73 12 60 0 65 -2 74 -26 6 -14 10
-42 10 -62 0 -54 32 -100 87 -124 38 -17 61 -20 128 -16 96 5 141 26 168 78
37 71 -1 292 -62 363 -19 22 -32 52 -40 97 -27 143 -63 180 -173 180 -67 0
-115 -25 -137 -71 -15 -31 -20 -34 -61 -34 -42 0 -46 2 -62 37 -27 56 -97 83
-178 68z m281 -378 c27 -22 21 -47 -16 -64 -35 -16 -75 3 -75 35 0 47 49 63
91 29z m-236 -96 c40 -17 55 -42 55 -90 0 -46 -40 -93 -86 -102 -140 -26 -250
91 -165 177 27 26 36 29 96 29 36 0 81 -6 100 -14z m596 -15 c72 -72 2 -181
-117 -181 -67 0 -144 54 -144 102 0 29 39 78 74 94 17 7 59 13 94 14 57 0 67
-3 93 -29z"/>
</g>
</svg>
