<?xml version="1.0" standalone="no"?>
<!DOCTYPE svg PUBLIC "-//W3C//DTD SVG 20010904//EN"
 "http://www.w3.org/TR/2001/REC-SVG-20010904/DTD/svg10.dtd">
<svg version="1.0" xmlns="http://www.w3.org/2000/svg"
 width="128.000000pt" height="128.000000pt" viewBox="10 -139 128.000000 128.000000"
 preserveAspectRatio="xMidYMid meet">
<metadata>
Created by potrace 1.15, written by Peter Selinger 2001-2017
</metadata>
<g transform="scale(0.1175,-0.1175)"
fill="#000000" stroke="none">
<path d="M591 1041 c-47 -47 -49 -58 -20 -95 28 -36 23 -64 -36 -198 -34 -77
-53 -108 -65 -108 -22 0 -107 74 -125 111 -8 15 -15 41 -15 58 0 41 -40 71
-95 71 -78 0 -98 -55 -41 -117 47 -53 65 -91 106 -228 l36 -120 310 -3 311 -2
23 77 c38 131 78 226 115 272 42 52 44 73 9 100 -57 45 -144 12 -144 -55 0
-45 -19 -80 -69 -129 -54 -51 -62 -46 -126 79 -49 97 -50 99 -50 192 0 101 -7
117 -57 129 -22 6 -33 0 -67 -34z"/>
<path d="M406 331 c-38 -3 -71 -11 -73 -17 -6 -18 41 -78 67 -85 36 -10 352
-10 439 0 80 10 92 17 116 74 l15 37 -247 -2 c-137 -1 -279 -4 -317 -7z"/>
</g>
</svg>
