<?xml version="1.0" standalone="no"?>
<!DOCTYPE svg PUBLIC "-//W3C//DTD SVG 20010904//EN"
 "http://www.w3.org/TR/2001/REC-SVG-20010904/DTD/svg10.dtd">
<svg version="1.0" xmlns="http://www.w3.org/2000/svg"
 width="128.000000pt" height="128.000000pt" viewBox="10 -139 128.000000 128.000000"
 preserveAspectRatio="xMidYMid meet">
<metadata>
Created by potrace 1.15, written by Peter Selinger 2001-2017
</metadata>
<g transform="scale(0.1175,-0.1175)"
fill="#000000" stroke="none">
<path d="M605 1068 c-30 -17 -44 -40 -45 -71 0 -38 40 -77 80 -77 39 0 80 39
80 75 0 31 -49 85 -77 85 -10 0 -27 -6 -38 -12z"/>
<path d="M552 872 c-93 -33 -172 -133 -172 -215 l0 -37 50 0 49 0 12 42 c21
80 101 129 184 114 47 -9 100 -62 114 -114 l12 -42 49 0 50 0 0 35 c0 49 -21
95 -66 145 -73 81 -180 108 -282 72z"/>
<path d="M560 490 l0 -80 80 0 80 0 0 80 0 80 -80 0 -80 0 0 -80z"/>
<path d="M560 280 l0 -80 80 0 80 0 0 80 0 80 -80 0 -80 0 0 -80z"/>
</g>
</svg>
