<?xml version="1.0" standalone="no"?>
<!DOCTYPE svg PUBLIC "-//W3C//DTD SVG 20010904//EN"
 "http://www.w3.org/TR/2001/REC-SVG-20010904/DTD/svg10.dtd">
<svg version="1.0" xmlns="http://www.w3.org/2000/svg"
 width="128.000000pt" height="128.000000pt" viewBox="10 -139 128.000000 128.000000"
 preserveAspectRatio="xMidYMid meet">
<metadata>
Created by potrace 1.15, written by Peter Selinger 2001-2017
</metadata>
<g transform="scale(0.1175,-0.1175)"
fill="#000000" stroke="none">
<path d="M609 1211 l-31 -31 20 -33 c17 -28 18 -36 6 -62 -7 -16 -13 -55 -14
-86 l0 -56 -37 -7 c-47 -8 -123 -42 -123 -55 0 -9 62 -35 113 -46 l27 -5 -7
-98 c-5 -53 -8 -182 -8 -287 0 -169 2 -198 22 -260 13 -38 32 -86 44 -105 l21
-34 19 23 c23 28 55 130 70 220 11 64 -2 444 -17 513 -5 24 -3 28 22 33 47 10
113 36 120 46 6 11 -49 36 -116 54 -44 11 -44 12 -42 51 2 22 -4 61 -13 87
-15 45 -15 49 4 75 18 26 18 29 3 48 -39 47 -49 48 -83 15z"/>
<path d="M290 813 c-50 -121 -50 -133 8 -256 56 -118 171 -314 209 -355 l24
-27 -5 25 c-18 86 -25 220 -18 345 l8 140 -57 62 c-31 33 -71 79 -89 102 -19
23 -36 41 -40 41 -4 0 -22 -35 -40 -77z"/>
<path d="M940 882 c0 -5 -38 -49 -84 -98 l-83 -89 4 -190 c3 -142 1 -209 -10
-265 l-15 -75 24 30 c103 126 255 422 254 493 -1 37 -62 195 -77 200 -7 2 -13
-1 -13 -6z"/>
</g>
</svg>
