<?xml version="1.0" standalone="no"?>
<!DOCTYPE svg PUBLIC "-//W3C//DTD SVG 20010904//EN"
 "http://www.w3.org/TR/2001/REC-SVG-20010904/DTD/svg10.dtd">
<svg version="1.0" xmlns="http://www.w3.org/2000/svg"
 width="128.000000pt" height="128.000000pt" viewBox="10 -139 128.000000 128.000000"
 preserveAspectRatio="xMidYMid meet">
<metadata>
Created by potrace 1.15, written by Peter Selinger 2001-2017
</metadata>
<g transform="scale(0.1175,-0.1175)"
fill="#000000" stroke="none">
<path d="M481 902 c-41 -150 -31 -141 -105 -88 -36 25 -67 46 -70 46 -3 0 -6
-30 -6 -67 0 -86 -8 -116 -27 -109 -68 26 -68 23 3 -83 l67 -101 14 28 c38 73
101 112 180 112 96 -1 169 -58 194 -152 16 -58 1 -115 -42 -171 l-30 -37 158
1 c152 0 157 1 126 16 -18 9 -33 20 -33 24 0 4 36 41 80 81 l80 73 -135 5
-135 5 40 55 c21 30 40 58 40 62 0 4 -34 5 -75 1 -42 -3 -75 -2 -75 3 1 5 27
84 59 177 32 92 56 167 54 167 -2 0 -61 -42 -131 -94 l-127 -95 -35 109 c-20
60 -38 111 -41 114 -2 3 -15 -34 -28 -82z"/>
<path d="M904 773 c-37 -4 -42 -8 -62 -49 -12 -24 -22 -47 -22 -49 0 -3 21 -5
48 -5 44 0 50 3 95 55 l48 55 -33 -2 c-18 -1 -51 -3 -74 -5z"/>
<path d="M490 598 c-128 -36 -150 -208 -39 -291 68 -50 181 -20 226 59 72 125
-47 272 -187 232z m150 -153 l0 -35 -105 0 -105 0 0 35 0 35 105 0 105 0 0
-35z"/>
</g>
</svg>
