<?xml version="1.0" standalone="no"?>
<!DOCTYPE svg PUBLIC "-//W3C//DTD SVG 20010904//EN"
 "http://www.w3.org/TR/2001/REC-SVG-20010904/DTD/svg10.dtd">
<svg version="1.0" xmlns="http://www.w3.org/2000/svg"
 width="128.000000pt" height="128.000000pt" viewBox="10 -139 128.000000 128.000000"
 preserveAspectRatio="xMidYMid meet">
<metadata>
Created by potrace 1.15, written by Peter Selinger 2001-2017
</metadata>
<g transform="scale(0.1175,-0.1175)"
fill="#000000" stroke="none">
<path d="M387 1074 c-4 -4 -7 -40 -7 -81 l0 -73 260 0 261 0 -3 78 -3 77 -251
3 c-138 1 -253 -1 -257 -4z"/>
<path d="M589 883 c-52 -8 -132 -66 -163 -117 -42 -67 -48 -160 -16 -234 34
-78 44 -82 88 -39 36 37 36 37 19 66 -23 39 -22 108 3 148 56 92 177 94 237 4
30 -44 31 -118 3 -153 l-19 -25 39 -38 c23 -22 43 -34 50 -30 7 4 23 31 36 59
41 89 30 192 -30 271 -47 61 -163 103 -247 88z"/>
<path d="M530 619 c0 -6 8 -24 17 -39 42 -72 144 -72 186 0 29 48 25 50 -93
50 -73 0 -110 -4 -110 -11z"/>
<path d="M596 329 c-51 -40 -22 -122 44 -122 64 0 92 72 45 118 -30 30 -54 31
-89 4z"/>
</g>
</svg>
