<?xml version="1.0" standalone="no"?>
<!DOCTYPE svg PUBLIC "-//W3C//DTD SVG 20010904//EN"
 "http://www.w3.org/TR/2001/REC-SVG-20010904/DTD/svg10.dtd">
<svg version="1.0" xmlns="http://www.w3.org/2000/svg"
 width="128.000000pt" height="128.000000pt" viewBox="10 -139 128.000000 128.000000"
 preserveAspectRatio="xMidYMid meet">
<metadata>
Created by potrace 1.15, written by Peter Selinger 2001-2017
</metadata>
<g transform="scale(0.1175,-0.1175)"
fill="#000000" stroke="none">
<path d="M361 1073 c0 -16 4 -50 9 -78 7 -46 6 -52 -19 -80 -46 -50 -74 -95
-96 -158 l-22 -59 -69 -27 c-38 -15 -69 -31 -68 -36 0 -6 31 -22 69 -36 68
-27 68 -27 90 -86 22 -62 50 -108 95 -158 27 -30 27 -31 17 -103 -5 -40 -7
-75 -4 -79 4 -3 34 15 67 42 61 47 61 47 105 36 56 -14 134 -14 190 0 43 11
44 11 105 -36 34 -26 64 -44 67 -41 3 3 1 38 -4 78 -10 72 -10 73 17 103 45
50 73 96 95 158 22 59 22 60 89 86 38 14 68 31 68 36 0 6 -30 22 -68 36 -67
26 -67 27 -89 86 -22 62 -50 108 -95 158 -27 30 -27 31 -17 103 5 40 7 75 4
79 -4 3 -34 -15 -67 -42 -61 -47 -61 -47 -105 -36 -56 14 -134 14 -190 0 -43
-11 -45 -11 -104 35 -33 25 -62 46 -65 46 -3 0 -6 -12 -5 -27z m234 -143 c15
-22 31 -40 35 -40 4 0 20 18 35 39 17 25 32 38 41 34 11 -4 12 -9 4 -18 -8
-10 -8 -19 1 -33 18 -28 4 -68 -41 -115 l-40 -42 -40 42 c-45 47 -59 87 -41
115 9 14 9 23 1 33 -8 10 -7 14 2 18 7 3 14 6 14 6 1 1 14 -17 29 -39z m-163
-90 c33 0 45 -10 67 -60 34 -74 30 -87 -33 -100 -63 -13 -107 -5 -113 21 -3
12 -14 19 -29 19 -44 0 -15 27 37 34 27 4 49 8 49 11 0 2 -9 23 -19 48 -14 33
-16 48 -8 56 9 9 13 6 19 -9 4 -12 17 -20 30 -20z m437 -27 c-10 -24 -19 -46
-19 -48 0 -3 22 -7 49 -11 52 -7 81 -34 37 -34 -15 0 -26 -7 -29 -19 -6 -26
-50 -34 -113 -21 -63 13 -67 26 -33 100 22 50 34 60 67 60 15 0 26 7 29 20 4
16 9 18 19 10 10 -9 9 -20 -7 -57z m-399 -224 c56 -12 61 -23 35 -86 -21 -50
-43 -73 -71 -73 -13 0 -27 -7 -32 -16 -5 -9 -14 -14 -20 -10 -8 4 -5 21 8 52
11 25 20 47 20 49 0 3 -22 7 -49 11 -53 7 -81 34 -36 34 16 0 25 6 25 15 0 15
30 33 57 34 7 1 35 -4 63 -10z m414 1 c14 -5 26 -16 26 -25 0 -9 9 -15 25 -15
45 0 17 -27 -36 -34 -27 -4 -49 -8 -49 -11 0 -2 9 -24 20 -49 13 -31 16 -48 8
-52 -6 -4 -15 1 -20 10 -5 9 -19 16 -32 16 -28 0 -50 23 -71 73 -25 61 -21 75
28 85 57 13 72 14 101 2z m-210 -120 c41 -46 54 -85 37 -112 -9 -14 -9 -23 -1
-33 8 -10 8 -15 -1 -21 -7 -4 -19 3 -30 17 -10 13 -25 33 -33 44 l-16 20 -16
-20 c-8 -11 -23 -31 -33 -44 -11 -14 -23 -21 -30 -17 -9 6 -9 11 -1 21 8 10 8
19 -1 33 -7 11 -9 30 -5 46 6 26 71 106 86 106 4 0 24 -18 44 -40z"/>
</g>
</svg>
